<?xml version="1.0" encoding="utf-8"?>
<!-- Generator: Adobe Illustrator 21.0.0, SVG Export Plug-In . SVG Version: 6.00 Build 0)  -->
<svg version="1.1" id="Layer_1" xmlns="http://www.w3.org/2000/svg" xmlns:xlink="http://www.w3.org/1999/xlink" x="0px" y="0px"
	 viewBox="0 0 562 562" style="enable-background:new 0 0 562 562;" xml:space="preserve">
<style type="text/css">
	.st0{fill:url(#SVGID_1_);}
	.st1{fill:url(#SVGID_2_);}
	.st2{fill:url(#SVGID_3_);}
	.st3{opacity:0.3;fill:url(#SVGID_4_);enable-background:new    ;}
	.st4{opacity:0.3;}
	.st5{fill:url(#SVGID_5_);}
	.st6{opacity:0.3;fill:url(#SVGID_6_);enable-background:new    ;}
	.st7{fill:url(#SVGID_7_);}
</style>
<g id="Layer_1_1_">
	
		<linearGradient id="SVGID_1_" gradientUnits="userSpaceOnUse" x1="281" y1="31" x2="281" y2="531" gradientTransform="matrix(1 0 0 -1 0 562)">
		<stop  offset="6.590545e-03" style="stop-color:#894B9D"/>
		<stop  offset="1" style="stop-color:#965BA5"/>
	</linearGradient>
	<path class="st0" d="M281,31C142.9,31,31,142.9,31,281s111.9,250,250,250s250-111.9,250-250S419.1,31,281,31z M281,476
		c-107.4,0-194.5-87.1-194.5-194.5S173.6,87,281,87s194.5,87.1,194.5,194.5S388.4,476,281,476z"/>
	<g>
		
			<linearGradient id="SVGID_2_" gradientUnits="userSpaceOnUse" x1="263.35" y1="143.4" x2="263.35" y2="407.7" gradientTransform="matrix(1 0 0 -1 0 562)">
			<stop  offset="6.590545e-03" style="stop-color:#894B9D"/>
			<stop  offset="1" style="stop-color:#965BA5"/>
		</linearGradient>
		<polygon class="st1" points="267.5,323 226.8,355 211.7,154.3 157.7,154.3 177.7,418.6 231.7,418.6 231.6,418.5 270.1,388.1 
			299,418.6 369,418.6 286,340.7 		"/>
		
			<linearGradient id="SVGID_3_" gradientUnits="userSpaceOnUse" x1="319.5" y1="140.8" x2="319.5" y2="407.8" gradientTransform="matrix(1 0 0 -1 0 562)">
			<stop  offset="6.590545e-03" style="stop-color:#894B9D"/>
			<stop  offset="1" style="stop-color:#965BA5"/>
		</linearGradient>
		<polygon class="st2" points="390.5,421.2 390.4,343.6 390.3,343.6 390.3,265.9 339.2,265.9 339.2,294.5 314.8,271.2 378.5,154.2 
			319.5,154.3 250.8,281.2 248.5,285.3 248.6,285.3 248.6,285.3 287.1,322.2 287.1,322.2 339.2,372.1 339.2,372.1 390.3,421.2 
			390.3,421.1 		"/>
	</g>
</g>
<g id="Layer_2">
	
		<linearGradient id="SVGID_4_" gradientUnits="userSpaceOnUse" x1="335.2188" y1="185.6216" x2="302.3673" y2="286.7279" gradientTransform="matrix(1 0 0 -1 0 562)">
		<stop  offset="0.5839" style="stop-color:#8E44AD;stop-opacity:0"/>
		<stop  offset="1" style="stop-color:#000000"/>
	</linearGradient>
	<polygon class="st3" points="314.9,271.2 286.9,321.8 341,374.5 339.2,294.5 	"/>
	<g class="st4">
		
			<linearGradient id="SVGID_5_" gradientUnits="userSpaceOnUse" x1="286.9" y1="239.15" x2="341" y2="239.15" gradientTransform="matrix(1 0 0 -1 0 562)">
			<stop  offset="0.5851" style="stop-color:#8E44AD;stop-opacity:0"/>
			<stop  offset="1" style="stop-color:#000000"/>
		</linearGradient>
		<polygon class="st5" points="314.9,271.2 286.9,321.8 341,374.5 339.2,294.5 		"/>
	</g>
	
		<linearGradient id="SVGID_6_" gradientUnits="userSpaceOnUse" x1="336.7497" y1="46.8228" x2="278.5987" y2="62.9584" gradientTransform="matrix(-0.8526 0.5226 0.5226 0.8526 483.1372 163.2597)">
		<stop  offset="0.5839" style="stop-color:#8E44AD;stop-opacity:0"/>
		<stop  offset="1" style="stop-color:#000000"/>
	</linearGradient>
	<polygon class="st6" points="269.8,388.1 267.2,323.1 227,355 231.8,418.6 	"/>
	<g class="st4">
		
			<linearGradient id="SVGID_7_" gradientUnits="userSpaceOnUse" x1="267.3225" y1="54.9264" x2="347.7179" y2="54.9264" gradientTransform="matrix(-0.8526 0.5226 0.5226 0.8526 483.1372 163.2597)">
			<stop  offset="0.5839" style="stop-color:#8E44AD;stop-opacity:0"/>
			<stop  offset="1" style="stop-color:#000000"/>
		</linearGradient>
		<polygon class="st7" points="270.1,388.1 267.5,323 227,355 231.8,418.6 		"/>
	</g>
</g>
</svg>
