<?xml version="1.0" encoding="iso-8859-1"?>
<!-- Generator: Adobe Illustrator 19.0.0, SVG Export Plug-In . SVG Version: 6.00 Build 0)  -->
<svg class="sidebar__icon" version="1.1" id="Layer_1" xmlns="http://www.w3.org/2000/svg" xmlns:xlink="http://www.w3.org/1999/xlink" x="0px" y="0px"
	 viewBox="0 0 512 512" style="enable-background:new 0 0 512 512;" xml:space="preserve">
<g>
	<g>
		<path d="M460.8,0H51.2c-9.426,0-17.067,7.641-17.067,17.067v477.867c0,9.426,7.641,17.067,17.067,17.067h384
			c9.426,0,17.067-7.641,17.067-17.067v-68.267h8.533c9.426,0,17.067-7.641,17.067-17.067V17.067C477.867,7.641,470.226,0,460.8,0z
			 M460.8,409.6h-8.533c-9.426,0-17.067,7.641-17.067,17.067v68.267h-384V17.067h409.6V409.6z"/>
	</g>
</g>
<g>
	<g>
		<path d="M435.2,0H213.333c-4.713,0-8.533,3.82-8.533,8.533v358.4c0,9.426,7.641,17.067,17.067,17.067h204.8
			c9.426,0,17.067-7.641,17.067-17.067V8.533C443.733,3.82,439.913,0,435.2,0z M426.667,366.933h-204.8V17.067h204.8V366.933z"/>
	</g>
</g>
<g>
	<g>
		<path d="M179.2,34.133H76.8c-4.713,0-8.533,3.82-8.533,8.533S72.087,51.2,76.8,51.2h102.4c4.713,0,8.533-3.82,8.533-8.533
			S183.913,34.133,179.2,34.133z"/>
	</g>
</g>
<g>
	<g>
		<path d="M179.2,68.267H76.8c-4.713,0-8.533,3.82-8.533,8.533s3.82,8.533,8.533,8.533h102.4c4.713,0,8.533-3.82,8.533-8.533
			S183.913,68.267,179.2,68.267z"/>
	</g>
</g>
<g>
	<g>
		<path d="M179.2,102.4H76.8c-4.713,0-8.533,3.82-8.533,8.533s3.82,8.533,8.533,8.533h102.4c4.713,0,8.533-3.82,8.533-8.533
			S183.913,102.4,179.2,102.4z"/>
	</g>
</g>
<g>
	<g>
		<path d="M179.2,136.533H76.8c-4.713,0-8.533,3.82-8.533,8.533s3.82,8.533,8.533,8.533h102.4c4.713,0,8.533-3.821,8.533-8.533
			S183.913,136.533,179.2,136.533z"/>
	</g>
</g>
<g>
	<g>
		<path d="M179.2,170.667H76.8c-4.713,0-8.533,3.82-8.533,8.533s3.82,8.533,8.533,8.533h102.4c4.713,0,8.533-3.82,8.533-8.533
			S183.913,170.667,179.2,170.667z"/>
	</g>
</g>
<g>
	<g>
		<path d="M179.2,204.8H76.8c-4.713,0-8.533,3.821-8.533,8.533c0,4.713,3.82,8.533,8.533,8.533h102.4
			c4.713,0,8.533-3.821,8.533-8.533C187.733,208.621,183.913,204.8,179.2,204.8z"/>
	</g>
</g>
<g>
	<g>
		<path d="M179.2,238.933H76.8c-4.713,0-8.533,3.82-8.533,8.533S72.087,256,76.8,256h102.4c4.713,0,8.533-3.82,8.533-8.533
			S183.913,238.933,179.2,238.933z"/>
	</g>
</g>
<g>
	<g>
		<path d="M179.2,273.067H76.8c-4.713,0-8.533,3.821-8.533,8.533s3.82,8.533,8.533,8.533h102.4c4.713,0,8.533-3.82,8.533-8.533
			S183.913,273.067,179.2,273.067z"/>
	</g>
</g>
<g>
	<g>
		<path d="M179.2,307.2H76.8c-4.713,0-8.533,3.82-8.533,8.533s3.82,8.533,8.533,8.533h102.4c4.713,0,8.533-3.82,8.533-8.533
			S183.913,307.2,179.2,307.2z"/>
	</g>
</g>
<g>
	<g>
		<path d="M179.2,341.333H76.8c-4.713,0-8.533,3.82-8.533,8.533s3.82,8.533,8.533,8.533h102.4c4.713,0,8.533-3.82,8.533-8.533
			S183.913,341.333,179.2,341.333z"/>
	</g>
</g>
<g>
	<g>
		<path d="M179.2,375.467H76.8c-4.713,0-8.533,3.82-8.533,8.533s3.82,8.533,8.533,8.533h102.4c4.713,0,8.533-3.82,8.533-8.533
			S183.913,375.467,179.2,375.467z"/>
	</g>
</g>
<g>
	<g>
		<path d="M179.2,409.6H76.8c-4.713,0-8.533,3.82-8.533,8.533s3.82,8.533,8.533,8.533h102.4c4.713,0,8.533-3.82,8.533-8.533
			S183.913,409.6,179.2,409.6z"/>
	</g>
</g>
<g>
	<g>
		<path d="M179.2,443.733H76.8c-4.713,0-8.533,3.821-8.533,8.533c0,4.713,3.82,8.533,8.533,8.533h102.4
			c4.713,0,8.533-3.821,8.533-8.533C187.733,447.554,183.913,443.733,179.2,443.733z"/>
	</g>
</g>
<g>
	<g>
		<path d="M313.856,415.659c-3.009-8.628-11.088-14.457-20.224-14.592h-58.197c-9.092,0.109-17.158,5.861-20.224,14.421
			c-4.014,9.747-1.643,20.958,5.973,28.245l31.659,29.525c3.169,2.967,7.35,4.615,11.691,4.608c4.33,0.03,8.509-1.587,11.691-4.523
			l31.659-29.44C315.499,436.617,317.87,425.406,313.856,415.659z M296.363,431.36l-31.829,29.44l-31.744-29.44
			c-2.465-2.505-3.142-6.264-1.707-9.472c0.427-1.109,1.707-3.755,4.352-3.755h58.283c2.56,0,3.925,2.645,4.352,3.755
			C299.505,425.096,298.828,428.855,296.363,431.36z"/>
	</g>
</g>
<g>
	<g>
		<path d="M354.731,154.795l-17.067-20.48c-0.458-0.514-0.945-1.001-1.458-1.458c-7.423-6.617-18.804-5.964-25.422,1.458
			l-17.067,20.48c-4.098,5.061-4.958,12.013-2.219,17.92c2.825,6.106,8.974,9.982,15.701,9.899h33.621
			c6.88,0.256,13.241-3.648,16.128-9.899C359.689,166.807,358.828,159.856,354.731,154.795z M306.688,165.632l17.067-20.48
			l0.512-0.085l16.555,20.565H306.688z"/>
	</g>
</g>
<g>
	<g>
		<path d="M405.931,214.528l-17.067-20.48c-0.458-0.514-0.945-1.001-1.458-1.458c-7.423-6.617-18.804-5.964-25.422,1.458
			l-17.067,20.48c-4.098,5.061-4.958,12.013-2.219,17.92c2.825,6.106,8.974,9.982,15.701,9.899h34.133
			c6.697,0.05,12.804-3.821,15.616-9.899C410.889,226.541,410.028,219.589,405.931,214.528z M358.4,225.28l17.067-20.48
			l17.067,20.48H358.4z"/>
	</g>
</g>
<g>
	<g>
		<path d="M303.531,214.528l-17.067-20.48c-0.458-0.514-0.945-1.001-1.458-1.458c-7.423-6.617-18.804-5.964-25.422,1.458
			l-17.067,20.48c-4.098,5.061-4.958,12.013-2.219,17.92c2.825,6.106,8.974,9.982,15.701,9.899h34.133
			c6.697,0.05,12.804-3.821,15.616-9.899C308.489,226.541,307.628,219.589,303.531,214.528z M256,225.28l17.067-20.48l17.067,20.48
			H256z"/>
	</g>
</g>
<g>
	<g>
		<path d="M375.467,34.133c-18.851,0-34.133,15.282-34.133,34.133s15.282,34.133,34.133,34.133S409.6,87.118,409.6,68.267
			S394.318,34.133,375.467,34.133z M375.467,85.333c-9.426,0-17.067-7.641-17.067-17.067S366.041,51.2,375.467,51.2
			s17.067,7.641,17.067,17.067S384.892,85.333,375.467,85.333z"/>
	</g>
</g>
<g>
	<g>
		<path d="M366.933,281.6H281.6c-4.713,0-8.533,3.82-8.533,8.533s3.82,8.533,8.533,8.533h85.333c4.713,0,8.533-3.82,8.533-8.533
			S371.646,281.6,366.933,281.6z"/>
	</g>
</g>
<g>
	<g>
		<path d="M401.067,315.733h-153.6c-4.713,0-8.533,3.82-8.533,8.533s3.82,8.533,8.533,8.533h153.6c4.713,0,8.533-3.82,8.533-8.533
			S405.78,315.733,401.067,315.733z"/>
	</g>
</g>
<g>
</g>
<g>
</g>
<g>
</g>
<g>
</g>
<g>
</g>
<g>
</g>
<g>
</g>
<g>
</g>
<g>
</g>
<g>
</g>
<g>
</g>
<g>
</g>
<g>
</g>
<g>
</g>
<g>
</g>
</svg>
